<svg width="81" height="81" viewBox="0 0 81 81" fill="none" xmlns="http://www.w3.org/2000/svg">
<path d="M44.7738 64.4832C44.8456 57.1403 42.984 51.1691 40.616 51.1459C38.2479 51.1229 36.27 57.0566 36.1983 64.3993C36.1264 71.7422 37.988 77.7136 40.356 77.7366C42.7242 77.7598 44.7021 71.8261 44.7738 64.4832Z" fill="black"/>
<path d="M31.0397 62.8155C35.0703 56.6772 36.7328 50.6475 34.7533 49.3477C32.7736 48.0478 27.9015 51.9701 23.8711 58.1083C19.8405 64.2465 18.178 70.2761 20.1575 71.5761C22.1372 72.876 27.0092 68.9537 31.0397 62.8155Z" fill="black"/>
<path d="M20.3712 54.0088C27.0807 51.0245 31.7394 46.851 30.7768 44.6872C29.8144 42.5233 23.5952 43.1886 16.8858 46.1731C10.1764 49.1574 5.51766 53.3309 6.48014 55.4947C7.4426 57.6585 13.6619 56.9933 20.3712 54.0088Z" fill="black"/>
<path d="M29.9716 38.6192C30.3319 36.2785 24.7404 33.4755 17.4828 32.3584C10.225 31.2413 4.04938 32.2332 3.68913 34.5739C3.32887 36.9145 8.92036 39.7174 16.1781 40.8345C23.4357 41.9517 29.6114 40.9597 29.9716 38.6192Z" fill="black"/>
<path d="M32.5773 33.0432C34.1456 31.2688 30.9565 25.8881 25.4543 21.0253C19.952 16.1624 14.2202 13.6588 12.6519 15.4333C11.0836 17.2078 14.2728 22.5885 19.7751 27.4513C25.2773 32.3142 31.0092 34.8177 32.5773 33.0432Z" fill="black"/>
<path d="M37.7668 29.7845C40.0455 29.1397 40.2719 22.8889 38.2725 15.8232C36.2732 8.75749 32.805 3.5523 30.5263 4.19712C28.2476 4.84194 28.0212 11.0926 30.0205 18.1584C32.0199 25.224 35.488 30.4293 37.7668 29.7845Z" fill="black"/>
<path d="M51.858 18.3782C53.9964 11.3532 53.8933 5.09936 51.6277 4.40974C49.3621 3.72011 45.792 8.85589 43.6536 15.8808C41.5154 22.9057 41.6184 29.1596 43.884 29.8492C46.1496 30.5388 49.7197 25.4032 51.858 18.3782Z" fill="black"/>
<path d="M61.9268 27.8704C67.5231 23.116 70.8168 17.7987 69.2834 15.9939C67.7501 14.1891 61.9704 16.5803 56.3743 21.3345C50.778 26.0889 47.4844 31.4062 49.0176 33.211C50.5509 35.0158 56.3306 32.6248 61.9268 27.8704Z" fill="black"/>
<path d="M65.256 41.303C72.5344 40.3292 78.18 37.6371 77.866 35.2897C77.552 32.9425 71.3972 31.8291 64.1188 32.8027C56.8405 33.7764 51.1948 36.4686 51.5088 38.816C51.8229 41.1632 57.9776 42.2768 65.256 41.303Z" fill="black"/>
<path d="M74.6452 56.1656C75.6501 54.0212 71.0746 49.7568 64.4253 46.6406C57.7762 43.5244 51.5712 42.7368 50.5663 44.8811C49.5613 47.0256 54.1368 51.29 60.7861 54.4062C67.4352 57.5222 73.6402 58.31 74.6452 56.1656Z" fill="black"/>
<path d="M60.6588 71.9878C62.6636 70.7273 61.1202 64.6659 57.2116 58.4494C53.3029 52.2329 48.509 48.2155 46.5042 49.476C44.4994 50.7364 46.0428 56.7979 49.9514 63.0144C53.86 69.2308 58.654 73.2484 60.6588 71.9878Z" fill="black"/>
</svg>
